<svg width="20" height="20" viewBox="0 0 20 20" fill="none" xmlns="http://www.w3.org/2000/svg">
<path d="M13.3327 7.50033V5.83366C13.3327 5.39163 13.1571 4.96771 12.8445 4.65515C12.532 4.34259 12.108 4.16699 11.666 4.16699H5.83268C5.39065 4.16699 4.96673 4.34259 4.65417 4.65515C4.34161 4.96771 4.16602 5.39163 4.16602 5.83366V15.8337C4.16602 16.2757 4.34161 16.6996 4.65417 17.0122C4.96673 17.3247 5.39065 17.5003 5.83268 17.5003H11.666C12.108 17.5003 12.532 17.3247 12.8445 17.0122C13.1571 16.6996 13.3327 16.2757 13.3327 15.8337V14.167" stroke="#272B2F" stroke-width="1.5" stroke-linecap="round" stroke-linejoin="round"/>
<path d="M9.16602 10.834H19.166M19.166 10.834L16.666 8.33398M19.166 10.834L16.666 13.334" stroke="#272B2F" stroke-width="1.5" stroke-linecap="round" stroke-linejoin="round"/>
</svg>
